<?xml version="1.0" encoding="UTF-8"?>
<svg id="a" data-name="Layer 1" xmlns="http://www.w3.org/2000/svg" viewBox="0 0 32 32">
  <path d="M2.06,27.34l-.02-22.56c0-1.63,1.5-3.12,3.13-3.12l21.51-.02c.95,0,1.84.39,2.46,1.1.53.61.86,1.38.86,2.21v22.36c-.1,1.62-1.41,2.93-3.03,3.04l-21.88-.02c-1.6,0-3.03-1.45-3.03-3ZM27.07,29.79c.67-.08,1.19-.38,1.64-.82s.66-1,.76-1.64V4.7c-.12-.53-.26-.97-.57-1.39-.51-.67-1.26-1.12-2.14-1.12H5.26c-.62,0-1.19.25-1.67.61-.51.39-.82.97-.99,1.58-.02.08,0,.17-.06.26v22.7c.17,1.27,1.11,2.27,2.38,2.45h22.14Z" style="fill: #0d5033;"/>
  <path d="M2.06,27.34s-.06-.07-.06-.15l.04-22.41.02,22.56Z" style="fill: #587a7d;"/>
  <path d="M27.07,29.79H4.93c-1.27-.18-2.21-1.19-2.38-2.45V4.64c.06-.09.04-.17.06-.26.17-.61.48-1.19.99-1.58s1.04-.61,1.67-.61h21.5c.87,0,1.63.45,2.14,1.12.32.42.45.86.57,1.39v22.63c-.1.64-.32,1.2-.76,1.64s-.97.74-1.64.82ZM13.67,26.04l.39.24.44.26.39.23c.25.15.47.31.78.37.64.12.87,0,1.35-.29l.89-.52.46-.27.39-.23.43-.26c.24-.14.44-.2.71-.16.43.07.86,0,1.29-.05l.49-.06c.81-.1,1.58-.33,2.32-.68,3.06-1.45,4.6-4.96,3.98-8.27.26-.33.25-.79-.06-1.11s-.74-.54-1.12-.79l-.65-.43c1.12-2.05,1.87-4.6,1.24-6.85-.42-1.52-1.73-2.57-3.32-2.63-1.67-.07-3.16.79-4.34,1.92-.05.05-.08.09-.14.07-.05-.01-.09-.06-.1-.12-.06-.46-.21-.86-.43-1.26-.61-1.11-1.75-1.79-3.03-1.78-1.51.01-2.7.86-3.24,2.26l-3.51,2.08-4.58,2.72c-.31.18-.42.57-.33.88.08.27.29.44.53.58l4.54,2.71c.2.12.38.2.58.37l-1.27.75c-.3.18-.52.42-.54.74-.02.35.13.64.43.83l.88.57-1.34.79-1.79,1.04c-.34.2-.73.37-.86.74-.14.41.06.83.41,1.05l1.31.79.58.32.46.28.41.24.55.32.46.27.38.23.56.32.43.26c.14.08.25.16.39.23l.53.3.58.36,1.12.65ZM4.63,16.09c.07-.68.67-1.13,1.31-1.02.6.1,1.02.69.9,1.35l.57.59c.29-.58.25-1.25-.11-1.79-.32-.49-.88-.79-1.51-.8-.84-.02-1.58.5-1.81,1.27s.07,1.64.78,2.08c.53.33,1.17.33,1.76.13l-.53-.54c-.37.07-.74-.02-.99-.27s-.41-.59-.37-1ZM5.87,16.36h.55c-.12-.13-.22-.29-.37-.38h-.62c.01.19-.03.36.02.52l.37.38.04-.51ZM7.56,18.04v-.53s-.93-.93-.93-.93h-.61s.02.54.02.54l.93.92h.58Z" style="fill: #699a3a;"/>
  <g>
    <g>
      <path d="M23.7,13.52l-.51.17-1.03.16c-.17.03-.34.12-.4.29-.08.2-.02.47.18.59-.05-.16-.17-.27-.14-.44.12-.6,1.3-.33,2-.73l.75.49c.03.2-.03.37-.06.56l-.28,1.99s-.05.09-.02.11c.02.02.08.06.12.04l.8-.42c.15.22.26.48.34.74l-1.36.79c-.14-.14-.25-.31-.31-.52-.14-.57-.63-.48-1.03-.69-.53-.28-.06-.82-.02-1.22.05-.57-.55-.83-.26-1.19-.2.05-.2.26-.12.39.26.47.43.59.17,1.19-.09.21-.17.49-.04.7.14.22.43.32.68.37.66.14.42.7.87,1.01l-2.91,1.77c-.05-.93-1.12-.84-.87-1.57.08-.24-.04-.5-.3-.58-.3-.09-.55-.23-.77-.46-.37-.38-.84-.58-1.38-.69l.8-.73c.11-.1.12-.13.3-.05l.02-.02-.12-.09,1.08-.98c.07.13.06.28-.01.4-.09.03-.16,0-.24,0,.02.03.03.06.01.09.08-.02.2,0,.27-.06.14-.11.06-.33.03-.49l.74-.68c.11.31.13.58.13.89.09-.11.1-.24.07-.37l-.15-.57.53-.46c.13-.04.29.05.41.07.36.05.69-.05,1.03-.14.1-.03.21-.04.23-.14l.33.22c.14.09.3.15.42.28ZM22.21,13.58c.15-.01.31,0,.42-.1-.44.05-.88.03-1.27.27.29-.04.53-.15.85-.17ZM21.36,14.61c-.13-.33-.12-.59-.02-.84-.2.16-.18.4-.11.62.02.08.02.24.13.22ZM22.65,14.16s-.15-.02-.15.02c.02.08.14.07.15-.02ZM21.37,14.68v.03s0,.03,0,.03v.03s0-.03,0-.03v-.05ZM19.56,15.09l-.02.02.02.02.02-.02-.02-.02ZM19.39,15.14s0,.09.04.08c.01,0,.02-.01.05-.04.02-.02.02-.03,0-.04-.03-.01-.08,0-.09,0ZM20.92,15.17l-.02.02.02.02.02-.02-.02-.02ZM20.94,15.28s.06,0,.02-.02l-.02.02ZM21.01,15.29s-.02.02-.04.02c.13.27.12.52.02.82.24-.26.18-.62.02-.84ZM18.95,15.58l-.03.03s0,.02.02.03l.04-.04-.03-.02ZM18.99,15.62l-.04.04.04.05.02-.02-.02-.07ZM19.03,15.7l-.02.02c.02.06.06.13.1.18l.03-.02c-.02-.07-.05-.14-.11-.18ZM19.16,15.89l-.03.04.02.02.04-.03s-.02-.02-.03-.03ZM19.2,15.94l-.02.03c.07.05.13.14.27.14-.08-.09-.16-.12-.25-.17ZM19.93,16.45s-.01-.14-.07-.16c-.14-.06-.26-.19-.42-.15.19.12.43.14.46.34l.04-.03ZM20.64,16.44c.16-.04.25-.17.33-.28-.1.11-.24.14-.33.28ZM19.99,16.59c.21.05.46.05.62-.14-.2.09-.39.13-.6.11l-.02.02ZM19.94,16.47l-.03.03s.02.02.02.03l.03-.03-.02-.03ZM19.98,16.52l-.03.03.03.02.02-.02-.02-.03Z" style="fill: #699a3a;"/>
      <path d="M21.07,19.69l-3.38,2.04c-.27.16-.49.11-.73-.05l-4.03-2.62c.66-.7.75-1.57,1.9-1.76l1-.07.05.36.11.41.55-.49c.36-.17.72-.27,1.11-.3.09,0,.21.1.29,0-.26-.09-.52-.06-.78,0l-.42.11c.18-.25.43-.38.62-.57l.34-.32c.5.06.96.26,1.33.61.25.24.5.43.84.51.23.05.35.27.28.5-.11.32.02.61.31.77s.5.41.53.74c0,.05.03.08.07.11ZM17.78,20.24s-.07-.09-.08-.16l1.25-.26-1.25-.3c.03-.06.09-.08.08-.18-.07.04-.14.09-.2.06l-.29-1.08-.29,1.05s-.12.04-.14.01l-.03.04s.04.08.04.12l-1.24.27,1.26.28-.1.18.21-.1.3,1.12.28-1.08c.06-.02.13.02.18.05l.03-.03ZM17.01,18.92s.04-.02.05-.04c.04-.14-.73.09-.89.7.2.05.15-.45.84-.66ZM18.29,19.54s.03.05.05.05c.02,0,.06,0,.06-.01.06-.2-.48-.84-.92-.73.37.19.69.31.81.69ZM16.85,19.37s-.09,0-.04.04l.04-.04ZM16.28,20.08s-.04-.04-.05-.05c-.17-.09.06.65.81.8.04,0,.05-.07.03-.08-.15-.1-.55-.12-.78-.67ZM18.41,20.03s-.09.01-.1.04c-.12.39-.43.53-.83.72.53.1,1.04-.69.93-.76ZM17.81,20.25l-.03.04s.07-.02.03-.04Z" style="fill: #699a3a;"/>
      <path d="M12.85,19.03l-2.51-1.63c.6-.23,1.04-.35,1.34-.94.37-.7,1.06-1.39,1.83-1.1l.83.39c.38.18.79.2,1.18,0l.29,1.38-.85.06c-.63.04-1.15.39-1.49.93-.2.32-.39.62-.62.89Z" style="fill: #699a3a;"/>
      <path d="M14.95,12.99l.1.51.16.71c.03.12.05.22.07.34l.22,1.12c-.33.18-.72.19-1.05.03l-.77-.38c-.85-.42-1.69.27-2.09,1.09-.15.31-.37.55-.7.66l-.68.24-1.2-.77,1.18-.7c.12-.07.22-.13.34-.21l1.79-1.08,2.63-1.57Z" style="fill: #699a3a;"/>
      <path d="M21.64,12.2c-.02.21.06.43.25.54.21.13.66.18.7.04l.32.23c-.5.23-1.02.28-1.56.17l.09-.14-.82-.08c-.13-.29,0-.59.19-.81.08-.09.13-.2.28-.22.03-.05-.03-.09-.07-.06l-.33.37c-.18.2-.26.42-.13.73l-1.16-.11.39-1.03c.03-.09.05-.13.08-.22l.21-.49c0,.09.04.11.1.15l1.45.92Z" style="fill: #699a3a;"/>
      <path d="M24.09,17.85l-.06.04c-.44-.31-.21-.88-.87-1.01-.25-.05-.54-.15-.68-.37-.13-.21-.06-.48.04-.7.26-.6.09-.71-.17-1.19-.07-.13-.08-.34.12-.39-.29.36.32.62.26,1.19-.04.4-.51.94.02,1.22.4.21.89.12,1.03.69.05.22.16.38.31.52Z" style="fill: #0d5033;"/>
      <path d="M23.7,13.52l.1.04c-.7.4-1.89.13-2,.73-.03.17.09.27.14.44-.2-.12-.26-.39-.18-.59.07-.17.24-.26.4-.29l1.03-.16.51-.17Z" style="fill: #0d5033;"/>
      <path d="M22.21,13.58c-.31.02-.55.13-.85.17.39-.24.83-.22,1.27-.27-.11.1-.27.09-.42.1Z" style="fill: #0d5033;"/>
      <path d="M20.94,15.28s.06,0,.02-.02l.04.04c.17.23.22.59-.02.84.09-.3.11-.55-.02-.82l-.03-.04Z" style="fill: #0d5033;"/>
      <path d="M21.36,14.61c-.11.02-.1-.13-.13-.22-.07-.22-.09-.46.11-.62-.1.25-.11.51.02.84Z" style="fill: #0d5033;"/>
      <path d="M19.89,16.49c-.03-.2-.27-.22-.46-.34.16-.05.29.09.42.15.06.02.07.12.07.16,0,0,0,.01,0,.02l.02.03.02.02.02.03.02.02c.2.02.4-.02.6-.11-.16.18-.4.18-.62.14,0,0-.01-.02-.02-.02l-.03-.02s-.01,0-.02-.02c0-.01-.01-.02-.02-.03-.01,0-.02-.02-.02-.02Z" style="fill: #0d5033;"/>
      <path d="M22.65,14.16c-.01.09-.14.1-.15.02,0-.05.12-.06.15-.02Z" style="fill: #0d5033;"/>
      <path d="M19.39,15.14s.06-.02.09,0c.03,0,.02.03,0,.04-.03.03-.03.03-.05.04-.04.01-.09-.03-.04-.08Z" style="fill: #0d5033;"/>
      <path d="M20.64,16.44c.09-.14.24-.17.33-.28-.09.11-.18.24-.33.28Z" style="fill: #0d5033;"/>
      <polygon points="21.37 14.68 21.37 14.7 21.37 14.73 21.37 14.76 21.37 14.73 21.37 14.7 21.37 14.68" style="fill: #0d5033;"/>
      <rect x="20.9" y="15.18" width=".03" height=".03" transform="translate(-4.61 19.24) rotate(-45)" style="fill: #0d5033;"/>
      <rect x="19.55" y="15.09" width=".03" height=".03" transform="translate(-4.95 18.26) rotate(-45)" style="fill: #0d5033;"/>
      <path d="M16.28,20.08c.23.55.64.57.78.67.02.02.02.09-.03.08-.75-.15-.98-.89-.81-.8.01,0,.04.02.05.05Z" style="fill: #0d5033;"/>
      <path d="M18.41,20.03c.11.07-.39.86-.93.76.4-.2.71-.33.83-.72,0-.02.08-.05.1-.04Z" style="fill: #0d5033;"/>
      <path d="M17.01,18.92c-.69.2-.63.71-.84.66.16-.61.93-.84.89-.7,0,.03,0,.03-.05.04Z" style="fill: #0d5033;"/>
      <path d="M18.29,19.54c-.11-.38-.43-.5-.81-.69.43-.11.98.53.92.73,0,.02-.04.01-.06.01-.02,0-.04-.03-.05-.05Z" style="fill: #0d5033;"/>
      <path d="M16.86,19.38s.13.04.14-.01l.29-1.05.29,1.08c.06.02.13-.02.2-.06,0,.1-.05.12-.08.18l1.25.3-1.25.26c0,.07.05.11.08.16h.02s0,.09-.03.05c0,0-.01-.02-.02-.02-.04-.03-.11-.07-.18-.05l-.28,1.08-.3-1.12-.21.1.1-.18-1.26-.28,1.24-.27s-.01-.09-.04-.12c0,0-.02-.02-.03-.02-.04-.04.02-.08.04-.04h0ZM17.28,19.77v-1.08s-.22.86-.22.86c.08.1.13.17.22.21ZM18.51,19.8l-.89-.2c-.12.03-.21.09-.25.22l1.14-.02ZM17.24,19.83h-1.19s.95.2.95.2c.1-.04.19-.13.24-.2ZM17.54,20.06l-.24-.25v1.12s.24-.86.24-.86Z" style="fill: #0d5033;"/>
      <path d="M22.54,12.78c-.19-.02-.4,0-.59-.1-.16-.09-.24-.27-.23-.44l.83.54Z" style="fill: #699a3a;"/>
      <path d="M21.72,12.25c0,.17.07.35.23.44.19.11.4.08.59.1h.04c-.05.15-.49.09-.7-.04-.19-.11-.27-.34-.25-.54l.08.04Z" style="fill: #0d5033;"/>
      <path d="M17.24,19.83c-.05.07-.14.16-.24.2l-.95-.2h1.19Z" style="fill: #699a3a;"/>
      <polygon points="17.54 20.06 17.3 20.93 17.3 19.81 17.54 20.06" style="fill: #699a3a;"/>
      <path d="M18.51,19.8l-1.14.02c.04-.13.13-.19.25-.22l.89.2Z" style="fill: #699a3a;"/>
      <path d="M17.28,19.77c-.09-.04-.15-.12-.22-.21l.21-.86v1.08Z" style="fill: #699a3a;"/>
    </g>
    <g>
      <path d="M13.67,26.04l-1.12-.65-.58-.36-.53-.3c-.13-.07-.25-.15-.39-.23l-.43-.26-.56-.32-.38-.23-.46-.27-.55-.32-.41-.24-.46-.28-.58-.32-1.31-.79c-.36-.21-.56-.64-.41-1.05.13-.37.52-.54.86-.74l1.79-1.04,1.34-.79-.88-.57c-.3-.19-.45-.48-.43-.83.02-.32.23-.56.54-.74l1.27-.75c-.2-.17-.38-.25-.58-.37l-4.54-2.71c-.24-.14-.45-.31-.53-.58-.09-.31.02-.7.33-.88l4.58-2.72,3.51-2.08c.54-1.4,1.73-2.25,3.24-2.26,1.28-.01,2.42.67,3.03,1.78.22.4.37.8.43,1.26,0,.06.05.11.1.12.06.02.09-.02.14-.07,1.18-1.14,2.67-1.99,4.34-1.92s2.9,1.11,3.32,2.63c.63,2.26-.12,4.8-1.24,6.85l.65.43c.39.25.8.47,1.12.79s.32.78.06,1.11c.62,3.3-.92,6.81-3.98,8.27-.74.35-1.51.58-2.32.68l-.49.06c-.43.05-.86.11-1.29.05-.27-.04-.47.02-.71.16l-.43.26-.39.23-.46.27-.89.52c-.48.28-.71.41-1.35.29-.3-.06-.53-.22-.78-.37l-.39-.23-.44-.26-.39-.24ZM16.67,9.86c.23-.14.53-.14.76-.31.45-.83.97-1.61,1.59-2.35.2-1.65-.98-3.16-2.62-3.37s-3.15.93-3.38,2.6.81,3.04,2.36,3.4l.64.88.65-.85ZM18.79,13.25c.65-2.18,1.83-4.5,3.48-5.94.9-.78,2.09-1.39,3.25-1.05.61.18,1.11.56,1.4,1.11.03-.21-.09-.38-.16-.55-.17-.38-.38-.73-.71-1.02-.81-.71-1.88-.97-2.95-.75-3.29.66-5.46,4.52-6.55,7.52l-1.38-.81,1.09,5.36,1.99-1.8,2.12-1.9-1.6-.17ZM10.8,14.51l.09-.07s.08-.02.12-.05l1.07-.66s.04-.04.05-.06l.09-.02s.04.02.03-.01l1.02-.61.09-.06.3-.18,1.14-.69-.24-1.22,1.2.68.96-.57c-.07-.08-.13-.11-.22-.17l-.27.35c-.05.06-.1.13-.18.13-.06,0-.14-.06-.18-.12l-.75-.99-.69-.25-.14.02s-.03-.07,0-.12c-.54-.32-.98-.76-1.29-1.29l-.16-.37c-.03-.06-.01-.13-.11-.16,0-.03.02-.07.02-.09,0-.04-.05-.06-.06-.08-.03-.37-.13-.75-.1-1.12l.04-.46-3.14,1.86-4.46,2.63c-.14.08-.21.19-.21.33s.06.26.2.34l5.47,3.28.34-.2ZM27.06,9.92l.02-.13c.23-1.44-.49-3.09-2.14-3.16,1.09.7,1.45,2.12,1.52,3.38.06,1.09-.14,2.13-.42,3.18.35-.57.51-1.16.72-1.75q.13-.51.29-1.51ZM26.02,10.67c.09-1.14-.18-2.75-1.09-3.51-.47-.38-1.09-.39-1.6-.07-.45.28-.86.61-1.22,1.01l3.45,2.07c.2.13.34.26.46.5ZM21.55,8.74c-.34.41-.63.86-.9,1.32l-.23.4,1.31.83,1.36.85.39.24,1.9-1.13c.13-.08.2-.19.2-.33,0-.13-.06-.25-.19-.33l-3.59-2.15c-.12.08-.17.21-.25.31ZM16.75,10.9l.34-.73c-.14-.01-.2.07-.26.15l-.28.4c.07.07.12.14.2.18ZM20.08,11.14l-.21.49c-.04.08-.05.13-.08.22l-.39,1.03,1.16.11c-.13-.3-.05-.53.13-.73l.33-.37s.1,0,.07.06c-.15.02-.2.13-.28.22-.2.22-.32.53-.19.81l.82.08-.09.14c.54.11,1.05.06,1.56-.17.01,0,.03,0,.04,0-.03.1-.13.11-.23.14-.34.1-.67.2-1.03.14-.12-.02-.28-.11-.41-.07l-.53.46.15.57c.03.13.02.26-.07.37,0-.31-.02-.59-.13-.89l-.74.68c.03.16.1.38-.03.49-.07.06-.19.04-.27.06.01-.03,0-.06-.01-.09.07,0,.14.02.24,0,.07-.12.08-.27.01-.4l-1.08.98.12.09.03.02.03.02s.01.01.02.02l.02.07s.01.01.02.02c.06.04.09.11.11.18,0,0,.02,0,.02,0,.01,0,.02.02.03.03v.02c.1.05.18.08.26.17-.15,0-.2-.09-.27-.14l-.02-.02-.02-.02-.02-.02c-.04-.05-.08-.12-.1-.18l-.02-.02-.04-.05h-.01s-.02-.03-.02-.05c0-.01,0-.02-.02-.02-.18-.08-.19-.05-.3.05l-.8.73c.54.11,1.01.31,1.38.69.22.23.47.37.77.46.26.08.38.33.3.58-.25.73.82.63.87,1.57-.02-.03-.06,0-.05.04-.04-.02-.06-.06-.07-.11-.03-.33-.25-.58-.53-.74s-.42-.45-.31-.77c.08-.22-.05-.45-.28-.5-.34-.08-.59-.27-.84-.51-.37-.35-.82-.56-1.33-.61l-.34.32c-.19.18-.44.32-.62.57l.42-.11c.26-.07.52-.1.78,0-.09.09-.2-.01-.29,0-.39.03-.76.12-1.11.3l-.55.49-.11-.41-.05-.36-1,.07c-1.15.19-1.24,1.06-1.9,1.76l-.08-.04c.24-.27.43-.57.62-.89.33-.54.85-.89,1.49-.93l.85-.06-.29-1.38c-.38.19-.79.18-1.18,0l-.83-.39c-.77-.3-1.47.39-1.83,1.1-.31.59-.74.71-1.34.94l-.12-.08.68-.24c.32-.11.55-.36.7-.66.4-.82,1.24-1.51,2.09-1.09l.77.38c.34.16.72.15,1.05-.03l-.22-1.12c-.02-.12-.04-.22-.07-.34l-.16-.71-.1-.51c-.03-.12-.01-.28-.1-.42l-5.99,3.61c-.14.09-.22.19-.23.33s.05.29.2.39l6.03,3.89,2.1,1.36c.21.13.55.15.78.01l7.82-4.74-.11-.35c-.08-.26-.19-.51-.34-.74l-.8.42s-.11-.02-.12-.04c-.02-.02.02-.08.02-.11l.28-1.99c.03-.19.09-.36.06-.56l.37.24-.26,1.82.62-.3c.38.54.62,1.15.77,1.81.34,1.5.11,3.04-.61,4.4-.62,1.17-1.59,2-2.75,2.62,1.27-.27,2.31-1,3.14-1.89,1.79-2.01,2.38-4.96,1.37-7.48l-6.98-4.4c-.07.08-.1.18-.15.28ZM24.75,13.19l.69.44c.27-.8.5-1.59.56-2.45-.08.21-.2.36-.4.48l-1.66.99.81.54ZM16.38,11.77c.03-.06.02-.09.02-.09-.09.05-.16.07-.22.14-.03.04.09.1.13.09.05-.01.05-.1.07-.14ZM25.73,19.73c.09-.66.07-1.24-.06-1.85l-1.51.92,1.58.92ZM8.98,18.69l-2.83,1.65c-.15.09-.24.2-.24.36,0,.14.06.29.22.38l9.34,5.5c.34.2.72.22,1.06.02l8.7-5.12.22-.58-4.93,2.9c0-.11-.03-.23-.12-.3-.01-.03-.02-.08,0-.1.02-.02.06-.04.13-.05-.12-.25.1-.58.12-.66l.13-.57c-.06,0-.07.02-.1.04s-.06.01-.08-.02c.02-.14.23-.2.17-.46-.01-.06-.07-.13-.16-.14-.03.03-.12.13-.17.1-.06-.09-.04-.21-.03-.34l-.27.12s.08.06.09.09c.01.04-.05.08-.08.09-.21.09-.03.38-.16.58-.15.02-.19-.14-.27-.14-.09,0-.07.17-.13.2-.03.02-.09-.02-.14-.01-.11.02-.26.21-.22.31.06.13.07.23.14.32-.12.06-.2.18-.33.21-.33.07-.5.33-.73.41-.02,0-.04.03-.06.05l-.06.03c-.17.07-.33.18-.47.31-.03.03-.06.09-.16.08l-.03.29c-.25.14-.52.21-.73.04l.24-.03c.1-.01.15-.02.17-.09.03-.11-.04-.12-.13-.17l-.44-.22-.56-.35s-.1-.03-.14-.02c0-.07-.03-.1-.09-.14l-.61-.39-.1-.06c.07,0,.21-.02.24-.12.06-.22.03-.45,0-.67.07-.15.04-.33-.13-.44l-2.95-1.91c-.17-.11-.33-.23-.56-.28l-.34.25-.17.29c-.03.11.03.24.03.36l-.44-.26c0-.06.03-.11.07-.18-.02-.03-.07-.05-.14-.06-.04,0-.02.06-.09.09,0-.27-.21-.29-.36-.43-.04-.09-.06-.14-.16-.14-.08,0-.08.1-.11.14-.03.04-.18.05-.14.17,0,.03.08.04.1.02.03-.02.07-.05.08-.1.08-.03.22.05.19.15-.06.01-.2,0-.19.09l-.12.03c-.1-.03-.19.04-.27.13l.15.05c-.1.05-.2.07-.3.07l-.05-.04c.01-.06-.02-.12-.08-.15.05-.02.12-.05.11-.08l-.03-.13h.07s.11,0,.11,0c.02,0,.04-.05.02-.1-.01-.03-.07-.04-.11-.03-.02-.03-.05-.06-.08-.08.03-.11.11-.15.25-.18l-.39-.21-.21-.04.11-.13,1-.54-.36-.24-.94.55ZM24.37,19.88l1.2.71.08-.38-.96-.58-.98-.58-.34.22,1,.59ZM9.58,19.98v.03s0,.03,0,.03v.03s0-.03,0-.03v-.03s0-.03,0-.03ZM21.39,20.7c-.09-.21.15-.11.17-.21,0-.04-.03-.09-.06-.06l-.06.05c-.41.17-.11.45-.3.61.17,0,.32-.21.25-.38ZM21.16,21.17l-.02.02.02.02.02-.02-.02-.02ZM20.97,21.65s-.04-.09-.01-.11l.08-.06c.06-.05.09-.13.09-.25-.11.1-.23.13-.36.19-.07.04,0,.13.02.16.04.05.09.09.17.07ZM22.98,23.99l.86-.63c.38-.27.68-.66.91-1.06l-3.56,2.1-.65.39s-.06,0-.07.02c-.02.02-.01.05,0,.06.02,0,.08.02.11.01.85-.17,1.67-.45,2.4-.89Z" style="fill: #0d5033;"/>
      <path d="M11.06,7.63c.39.31.92.37,1.42.37.04-.06.09-.15.17-.16.01.01.06.04.06.08,0,.02,0,.06-.02.09.1.03.08.1.11.16l-.33-.02c-.14.2-.27.4-.45.59l1,1.84.7-.41c-.44-.46-.71-1.01-.76-1.62.31.53.75.97,1.29,1.29-.02.06-.02.13,0,.12l.14-.02.69.25.75.99c.05.06.12.12.18.12.08,0,.13-.06.18-.13l.27-.35c.09.06.15.09.22.17l-.96.57-1.2-.68.24,1.22-1.14.69-1.09-1.77-2.34,1.46c-.12.08-.24.14-.33.26l.53,1.01.46.46.99-.6-1.09-.68,1.09-.7.71.5-.56.84c.03.05.07.08.1.1-.01.02-.03.05-.05.06.01-.04-.07-.1-.12-.07l-.95.57s-.07.06-.06.1c0,.03.02.06.06.06-.04.02-.07.04-.12.05,0-.09-.05-.15-.12-.22l-.42-.43-.53-.98-.52.63s-.06.06-.1.07l-.09-.06.64-.74-.9-.4-.17-.44-1.62.36-.18-.1,1.75-.39c-.06-.17-.05-.37-.17-.45l-.38-.27s.03-.12.02-.16l-.13-.48c-.48.07-1-.1-1.46.03.01-.13.14-.11.2-.15l1.31.07.16.5.94-1.29-.61-.24c-.05-.02-.08-.04-.07-.08.02,0,.05,0,.07,0l.66.25.66-.89-.17-.06.08-.05.77.25.62.16c.28.07.56.05.79-.13l-.38-.68-.61-.29s.11-.07.16-.1ZM12.37,8.13l-.7-.06.31.58c.18-.15.27-.3.39-.52ZM12.5,10.87l.44-.25-1.02-1.84c-.22.14-.43.2-.66.16-.48-.08-.91-.22-1.37-.38l-1.74,2.4c.14.1.31.13.36.25l.19.47,3.8-.81ZM14.25,10.55c-.14-.08-.26-.16-.4-.3l-1.18.69c.04.14.11.26.2.34l1.38-.73ZM10.34,12.23l1.79-1.14-2.19.46.4.68ZM9.78,12.63l.46-.33-.42-.72-1.06.24c.04.16.08.29.14.4.3.13.59.23.88.41Z" style="fill: #3470a0;"/>
      <path d="M26.02,10.67c-.12-.24-.26-.37-.46-.5l-3.45-2.07c.37-.4.77-.73,1.22-1.01.51-.32,1.13-.31,1.6.07.91.76,1.19,2.37,1.09,3.51Z" style="fill: #699a3a;"/>
      <path d="M24.2,10.31l-.53.32c-.03.11-.02.32.07.39l.33.25,1.12-.36-1.02.63c-.18-.27-.48-.31-.58-.57l-1.84.32-1.31-.83.23-.4s.09,0,.14-.05l1.23-.99,2.17,1.29Z" style="fill: #3470a0;"/>
      <path d="M13.64,12.79l-.3.18-.42-.89s-.05,0-.06.01l.39.81c.03.05.03.1,0,.14l-1.02.61h-.03s-.09.03-.09.03c-.03-.03-.07-.05-.1-.1l.56-.84-.71-.5-1.09.7,1.09.68-.99.6-.46-.46-.53-1.01c.09-.12.2-.18.33-.26l2.34-1.46,1.09,1.77Z" style="fill: #6eb6de;"/>
      <path d="M24.75,13.19l-.81-.54,1.66-.99c.2-.12.33-.27.4-.48-.06.86-.29,1.65-.56,2.45l-.69-.44Z" style="fill: #699a3a;"/>
      <path d="M12.81,8.17l.16.37c.05.61.32,1.15.76,1.62l-.7.41-1-1.84c.19-.18.31-.38.45-.59l.33.02Z" style="fill: #6eb6de;"/>
      <path d="M24.15,11.53l-1.06.61-1.36-.85,1.84-.32c.1.25.4.3.58.57Z" style="fill: #6eb6de;"/>
      <path d="M12.66,7.84c-.08.01-.13.1-.17.16-.51,0-1.04-.06-1.42-.37l1.49-.91c-.03.38.07.75.1,1.12Z" style="fill: #6eb6de;"/>
      <path d="M10.89,14.43l-.09.07c0-.06-.04-.07-.09-.1l-1.52-.91s.07-.03.1-.07l.52-.63.53.98.42.43c.07.07.11.13.12.22Z" style="fill: #6eb6de;"/>
      <path d="M22.03,9.03l-1.23.99s-.1.06-.14.05c.27-.47.56-.91.9-1.32.18.07.33.2.48.28Z" style="fill: #6eb6de;"/>
      <path d="M12.07,13.73l-1.07.66s-.06-.04-.06-.06c-.01-.05.02-.08.06-.1l.95-.57c.05-.03.13.03.12.07Z" style="fill: #6eb6de;"/>
      <path d="M13.34,12.96l-.09.06s.02-.08,0-.14l-.39-.81s.04-.01.06-.01l.42.89Z" style="fill: #3470a0;"/>
      <path d="M12.2,13.65h.03s-.02.03-.03,0Z" style="fill: #3470a0;"/>
      <g>
        <path d="M16.75,10.9c-.08-.04-.13-.11-.2-.18l.28-.4c.06-.09.12-.16.26-.15l-.34.73Z" style="fill: #3470a0;"/>
        <path d="M16.78,6.81c-.02.1-.04.24.02.31.11.11.33.05.43-.11.28-.46.27-1.16-.17-1.55-.57-.51-1.52-.41-2.02.15-.36.41-.44.95-.34,1.46.09.46.43.81.88.93s.87.06,1.28-.12l.11.36c-.52.23-1.11.28-1.65.1-.72-.24-1.12-.89-1.12-1.63,0-1.14.87-2.01,2.02-1.97.5.02.98.18,1.29.59.37.47.43,1.12.18,1.67-.19.41-.61.65-1.04.55-.15-.03-.24-.14-.31-.29-.17.22-.36.32-.6.32-.2,0-.46-.1-.56-.32-.26-.53-.06-1.24.45-1.52.3-.17.64-.12.82.17.06-.07.05-.13.06-.2h.46s-.19,1.11-.19,1.11ZM16.33,6.24c-.03-.16-.36-.25-.53-.06-.29.32-.29.93.04.97s.57-.48.49-.91Z" style="fill: #0d5033;"/>
      </g>
      <path d="M12.5,10.87l-3.8.81-.19-.47c-.05-.12-.22-.15-.36-.25l1.74-2.4c.46.16.9.3,1.37.38.23.04.45-.02.66-.16l1.02,1.84-.44.25ZM11.74,9.91l.51-.23-.34-.55-.5-.05-.89.74.33.93,1.15-.26-.25-.58Z" style="fill: #6eb6de;"/>
      <path d="M6.49,10.38c.46-.13.98.04,1.46-.03l.13.48s-.02.11-.02.16l.38.27c.12.09.12.28.17.45l-1.75.39-1.68-1.01c.49-.22.86-.58,1.31-.71Z" style="fill: #6eb6de;"/>
      <polygon points="9.1 13.43 7.04 12.2 8.66 11.84 8.83 12.28 9.73 12.69 9.1 13.43" style="fill: #6eb6de;"/>
      <path d="M6.69,10.23l1.73-1.05s.02.06.07.08l.61.24-.94,1.29-.16-.5-1.31-.07Z" style="fill: #6eb6de;"/>
      <path d="M10.9,7.73l.61.29.38.68c-.23.18-.5.2-.79.13l-.62-.16-.77-.25,1.19-.7Z" style="fill: #6eb6de;"/>
      <path d="M9.78,12.63c-.29-.17-.58-.28-.88-.41-.06-.12-.1-.24-.14-.4l1.06-.24.42.72-.46.33Z" style="fill: #6eb6de;"/>
      <polygon points="10.34 12.23 9.95 11.55 12.13 11.1 10.34 12.23" style="fill: #6eb6de;"/>
      <path d="M14.25,10.55l-1.38.73c-.09-.09-.16-.2-.2-.34l1.18-.69c.14.14.26.22.4.3Z" style="fill: #6eb6de;"/>
      <path d="M8.49,9.17s.08-.08.14-.12l1.01-.58.17.06-.66.89-.66-.25Z" style="fill: #6eb6de;"/>
      <path d="M12.37,8.13c-.11.21-.21.37-.39.52l-.31-.58.7.06Z" style="fill: #6eb6de;"/>
      <path d="M25.18,10.91l-1.12.36-.33-.25c-.09-.07-.09-.28-.07-.39l.53-.32.98.6Z" style="fill: #6eb6de;"/>
      <polygon points="11.74 9.91 11.99 10.49 10.84 10.75 10.52 9.81 11.41 9.08 11.91 9.12 12.25 9.68 11.74 9.91" style="fill: #3470a0;"/>
    </g>
    <g>
      <path d="M15.17,22.82s-.07-.02-.1-.03l-.04-.06c0-.07.07-.07.1-.1.14-.1.16-.27.12-.41-.18.05-.23-.04-.34-.13-.09-.08-.33.04-.37.13-.04.09-.07.1-.14.1h-.08c-.03-.1-.11-.13-.2-.18-.21-.12-.39-.26-.62-.32-.07-.18-.3-.21-.45-.33-.18-.13-.35-.25-.53-.37-.12-.08-.21-.15-.38-.06,0-.07,0-.15-.03-.18l-.42-.26c-.04-.1-.18-.19-.28-.18l-.13-.13c0-.12-.06-.25-.03-.36.14-.09.3-.13.49-.09.1.02.17-.05.25-.08.11-.03.25,0,.33-.09l2.95,1.91c.16.11.2.28.13.44.04.22.07.45,0,.67-.03.1-.18.12-.24.12ZM13.88,21.29c-.13-.07-.25-.09-.37-.08.02.15.16.22.29.25.04-.02.1-.12.08-.17Z" style="fill: #5f504c;"/>
      <path d="M18.42,23.89s.12-.01.13-.05h.07c.14.04.29,0,.39.11l-.14.19c-.09.13-.22,0-.32,0l-.42.03c-.04.13-.1.23-.17.34.09.03.13-.04.18-.09.07.06.03.12.04.17-.01,0-.04,0-.05,0-.06-.02-.19-.05-.24,0-.07.08-.05.22-.03.3.05-.09.1-.1.16-.12s.1-.1.17-.09v.07s-.06.02-.07.04c0,.07-.05.1-.1.14-.09.07-.15.19-.2.29l-.03-.39c-.06.06-.14.04-.14.01,0-.03.02-.1-.03-.13-.08.13-.1.32-.26.35.02-.1.04-.17-.04-.22-.13.27-.35.34-.61.28-.13-.02-.28.05-.4.07l-.23.59c.16.23.06.33-.03.53-.15,0-.26-.04-.38-.11v-.22c-.02-.09.03-.18,0-.25.12.03.13-.35.08-.43-.06-.11-.09-.2-.04-.3.1-.17.21-.32.42-.38.17-.25.43-.41.71-.35.21.17.48.09.73-.04l.03-.29c.1.01.12-.05.16-.08.35.04.5-.2.68,0ZM17.58,24.66c.1-.04.17-.16.15-.28,0-.07-.09-.11-.14-.08-.03.02-.08.04-.07.14l.12-.04c.04.11-.03.17-.07.27Z" style="fill: #3470a0;"/>
      <path d="M22.98,23.99c-.74.45-1.55.72-2.4.89-.02,0-.09-.01-.11-.01-.02,0-.02-.03,0-.06,0-.01.03-.04.07-.02l.65-.39,3.56-2.1c-.22.4-.53.78-.91,1.06l-.86.63Z" style="fill: #699a3a;"/>
      <path d="M25.73,19.73l-1.58-.92,1.51-.92c.13.61.15,1.19.06,1.85Z" style="fill: #699a3a;"/>
      <path d="M14.58,22.48c.15,0,.26.11.37.21l-.04.12s-.07.06-.07.11c.07.07.13.13.21.14,0,0,.02-.02.02-.03.09-.02.2-.05.21-.15l.61.39c.06.04.1.08.09.14-.02.07-.11.09-.18.12.04.11.05.2-.02.26l-.07.04c-.12-.03-.26-.01-.35-.16-.02.14.03.27.12.4-.07.04-.14,0-.15-.04,0-.03,0-.05,0-.06,0-.02-.03-.06-.08-.06l-.12.24c-.12-.03-.11-.16-.14-.2-.08-.06-.2-.12-.29-.08-.05-.1-.19-.07-.17-.16.08,0,.17,0,.24-.02,0-.11-.06-.13-.16-.15-.04-.03-.07-.13-.13-.16-.13.03-.25.05-.36.05,0-.1-.02-.19-.1-.29l.09-.17c.12-.03.05-.2.19-.23.03,0,.08,0,.13.01-.03-.05-.07-.07-.06-.08l.05-.07s.03-.08.05-.1c.03-.02.07-.02.09-.01ZM15.06,23.08h.05s-.05,0-.05,0ZM15.24,23.49c-.1-.06-.24,0-.28.09-.03.08.13.15.19.12.07-.03.16-.17.08-.21Z" style="fill: #4ea184;"/>
      <path d="M20.12,22.44v.37c-.12.05-.24.1-.32.22-.04.06.04.13.11.15-.04.14-.04.28.04.41.05.08.14.18.29.17-.05.1-.04.17.02.2l-.75.44c-.06-.09-.12-.16-.27-.17-.01.1,0,.2.03.3l-.4.27-.36.17c-.14.07-.24.16-.36.22-.03-.1-.11-.16-.11-.25.05-.04.09-.07.1-.14.03,0,.05-.02.05-.04v-.07s.03-.07,0-.1c0-.05.03-.1-.04-.17-.05.05-.08.12-.18.09.07-.11.13-.22.17-.34l.42-.03c.1,0,.23.12.32,0l.14-.19s.06-.07.09-.09c.08-.04.11-.03.16.04-.18.09-.25.16-.2.3.02.04.12.08.14.04.02-.15.06-.26.21-.31.04-.04.06-.17.02-.21-.06,0-.15.04-.18,0-.02-.03-.05-.13-.09-.13-.01-.07.01-.13.03-.22.01-.06-.07-.1-.11-.09-.02-.06-.02-.12-.02-.19.13-.03.21-.15.33-.21.1-.05.17-.16.29-.16.05,0,.12.02.16-.01.04-.03.04-.13.04-.18.07-.07.17-.07.24-.09ZM18.52,24.78c.09.02.15-.04.15-.07,0-.02-.01-.07-.03-.11-.03-.05-.1-.01-.12.03-.03.04-.04.14,0,.15Z" style="fill: #6eb6de;"/>
      <path d="M20.61,22.15l-.46.25s-.03.03-.04.04c-.07.03-.17.02-.24.09,0,.05,0,.15-.04.18-.04.04-.12.01-.16.01.11-.13.16-.25.07-.43.13,0,.2-.02.25-.1.14-.21-.05-.49.16-.58.03-.01.09-.05.08-.09,0-.03-.05-.06-.09-.09l.27-.12c0,.14-.03.25.03.34.06.03.14-.07.17-.1.09.01.15.08.16.14.06.25-.15.32-.17.46Z" style="fill: #587a7d;"/>
      <path d="M20.41,23.51c-.06-.04-.1-.09-.11-.19-.08.04-.1.06-.19.07.06-.13.05-.21.06-.33l.1-.19-.06-.12.06-.15c.03-.08-.09-.13-.11-.2l.46-.25s.06.04.08.02.03-.05.1-.04l-.13.57c-.02.08-.24.41-.12.66-.08.02-.11.03-.13.05-.02.02-.02.07,0,.1ZM20.57,22.24s.01.08.04.05c0,0,.04-.03.04-.05,0-.02-.04-.04-.07,0Z" style="fill: #6eb6de;"/>
      <path d="M19.05,23.09c0,.07,0,.13.02.19-.1.02-.18.08-.2.21-.05.04-.13.04-.14.16.09-.04.15-.11.25-.21.03.08-.02.14.02.14h.15s.07.1.09.13c.03.04.13,0,.18,0,.04.04.02.18-.02.21-.15.05-.19.16-.21.31-.01.05-.12,0-.14-.04-.05-.14.02-.21.2-.3-.05-.06-.09-.07-.16-.04-.04.02-.06.04-.09.09-.1-.11-.25-.07-.39-.1.06-.02.12-.05.17-.12-.08-.05-.19-.05-.25.03l-.21-.08s0-.08-.03-.09c-.03,0-.1-.01-.11-.02l.06-.03s.04-.03.06-.05c.23-.08.4-.34.73-.41ZM18.85,23.64s0,.11.01.11l.04-.07c.05.02.07-.04.05-.05-.03-.01-.08,0-.09.01Z" style="fill: #4ea184;"/>
      <path d="M10.1,19.81c.22,0,.46.03.61.19,0,.15.17.2.05.38l-.3-.09c.07.22-.05.38-.22.46-.04,0-.08-.02-.09-.04-.01-.02,0-.05,0-.09l.02-.26c.01-.13-.05-.25-.18-.26v-.27s.11-.03.11-.03Z" style="fill: #6eb6de;"/>
      <path d="M20.41,23.51c.08.06.11.18.12.3l-.27.16c-.06-.03-.06-.1-.02-.2-.15,0-.24-.09-.29-.17-.08-.13-.08-.28-.04-.41-.07-.02-.15-.09-.11-.15.08-.12.2-.17.32-.22v-.37s.03-.04.04-.04c.02.06.14.11.11.2l-.06.15.06.12-.1.19c-.01.12,0,.21-.06.33.09,0,.11-.03.19-.07,0,.1.05.15.11.19Z" style="fill: #3470a0;"/>
      <path d="M24.69,19.64c-.09.12-.22.15-.32.24l-1-.59.34-.22.98.58Z" style="fill: #a3b5ae;"/>
      <path d="M9.29,18.92c-.12-.04-.24-.11-.3-.23l.94-.55.36.24-1,.54Z" style="fill: #a3b5ae;"/>
      <path d="M16.68,23.78c0,.06,0,.1-.02.17-.04-.03-.08-.04-.12-.03-.05,0-.1.04-.12.15l-.41-.14c-.05-.1-.13-.18-.22-.13.07-.06.06-.15.02-.26.07-.03.16-.05.18-.12.04,0,.1-.01.14.02l.56.35Z" style="fill: #587a7d;"/>
      <path d="M20,22.2c-.05.08-.12.11-.25.1.08.18.03.3-.07.43-.12,0-.19.11-.29.16-.07-.09-.08-.19-.14-.32-.05-.1.1-.29.22-.31.05-.01.11.03.14.01.06-.04.04-.21.13-.2.08,0,.12.15.27.14Z" style="fill: #699a3a;"/>
      <path d="M12.32,19.69c-.08.1-.21.06-.33.09-.08.02-.15.1-.25.08-.19-.04-.35,0-.49.09l.17-.29.34-.25c.23.05.39.17.56.28Z" style="fill: #699a3a;"/>
      <path d="M10.84,20.05l-.12-.05c-.15-.16-.4-.18-.61-.19-.01-.09.13-.08.19-.09.03-.1-.11-.18-.19-.15,0-.03-.01-.07-.04-.1.03-.04.03-.14.11-.14.1,0,.12.05.16.14.15.14.36.17.36.43.07-.03.05-.1.09-.09.07.02.12.03.14.06-.04.07-.06.12-.07.18Z" style="fill: #699a3a;"/>
      <path d="M9.52,19.69l.03.13s-.06.06-.11.08c.06.03.09.09.08.15-.04-.04-.11-.05-.16-.04-.01,0-.05,0-.05,0l-.02-.08c-.08.05-.09.15-.15.25-.07-.07-.15-.06-.24-.03v-.05s0-.04,0-.04c.03.01.07,0,.08-.03.01-.03,0-.06.01-.1,0-.03.04-.08.07-.08l.2-.02.06-.3c.13.02.17.07.19.16Z" style="fill: #699a3a;"/>
      <path d="M10.84,20.05l.44.26.13.13c-.21.03-.29-.01-.29.07h-.24s-.08-.01-.1-.04c-.01-.02-.02-.06-.02-.09.13-.18-.04-.23-.05-.38l.12.05Z" style="fill: #4ea184;"/>
      <path d="M9.18,19.05l.21.04.39.21c-.14.03-.23.07-.25.18-.05-.12-.12-.17-.26-.17l-.33-.14c.06-.03.14-.15.24-.13Z" style="fill: #4ea184;"/>
      <path d="M9.98,19.84v.27c-.07.05-.11.14-.09.23h-.32c-.08-.02-.12-.06-.18-.08.09-.01.18-.02.26-.06-.07-.03-.08-.07-.08-.11.1,0,.2-.02.3-.07l-.15-.05c.08-.1.17-.16.27-.13Z" style="fill: #699a3a;"/>
      <path d="M18.2,23.58s.08,0,.11.02c.03,0,.03.04.03.09l.21.08v.08s-.09.02-.12.05c-.18-.21-.33.03-.68,0,.13-.13.3-.24.47-.31Z" style="fill: #699a3a;"/>
      <path d="M9.53,19.48s.06.05.08.08c-.04-.02-.07.02-.05.05.01.03.02.05.03.08h-.07c-.02-.08-.07-.13-.19-.15l-.06.3-.2.02c.07-.1.08-.21.14-.34.02-.06.15-.12.07-.2.13,0,.2.05.26.17Z" style="fill: #60c587;"/>
      <path d="M21.39,20.7c.07.17-.08.38-.25.38.19-.16-.11-.44.3-.61l.06-.05s.07.02.06.06c-.01.11-.26,0-.17.21Z" style="fill: #587a7d;"/>
      <path d="M20.97,21.65c-.09.02-.13-.02-.17-.07-.03-.03-.1-.13-.02-.16.13-.06.25-.09.36-.19,0,.12-.03.2-.09.25l-.08.06s-.02.07.01.11Z" style="fill: #587a7d;"/>
      <path d="M9.52,20.06l.05.04s.02.07.08.11c-.08.04-.17.05-.26.06l-.15-.05c0-.1.08-.13.11-.2.05,0,.12,0,.16.04Z" style="fill: #60c587;"/>
      <path d="M15.07,22.79s.07.02.1.03l.1.06c0,.1-.12.13-.21.15l.05.04h-.05s-.02-.01-.02-.01c-.08,0-.14-.07-.21-.14,0-.05.06-.07.07-.11-.02.04,0,.12.04.15.04.02.08,0,.1-.03.03-.04.03-.09.03-.13Z" style="fill: #699a3a;"/>
      <path d="M10.05,19.47s.05.07.04.1c0,.04-.05.08-.08.1-.03.02-.1,0-.1-.02-.04-.13.11-.13.14-.17Z" style="fill: #4ea184;"/>
      <path d="M9.59,19.69s-.01-.05-.03-.08c-.02-.03,0-.07.05-.05.04,0,.1,0,.11.03.02.04,0,.09-.02.1h-.11Z" style="fill: #699a3a;"/>
      <polygon points="9.58 19.98 9.59 20 9.59 20.03 9.58 20.06 9.58 20.03 9.58 20 9.58 19.98" style="fill: #699a3a;"/>
      <rect x="21.15" y="21.17" width=".03" height=".03" transform="translate(-8.78 21.17) rotate(-45)" style="fill: #587a7d;"/>
      <path d="M18.26,23.55s.04-.04.06-.05c-.01.02-.03.04-.06.05Z" style="fill: #699a3a;"/>
      <path d="M12.03,21.91c-.06.07-.16.09-.27.15l.02.32c0,.09,0,.17.11.26,0,.05-.05.11-.01.18l.1-.23s-.01.06-.02.07c0,.01.08-.01.09,0,.1.05.02.18.03.24.01.08.06.18.09.27.02.04.12.02.13,0-.07.23.22.41.16.54-.03.07-.06.13-.03.22s.11.1.2.12v.23c-.07.02-.12.02-.17.02-.06-.06-.19-.05-.27-.1l-1.5-.88s.07-.06.05-.08l-.08-.1c-.09-.12-.12-.24-.23-.36-.05-.05-.03-.21.01-.27.35-.42.7-.36.72-.37.03-.02.04-.09.03-.16l.06.05.1-.06c.18.01.34.04.46-.1,0-.04,0-.07.02-.09.04-.04.12-.06.14-.03,0,.07.02.11.04.15Z" style="fill: #a48f71;"/>
      <path d="M14.33,22.31l-.38.4-.11.04s-.05.06-.05.11c-.08-.1-.05-.23-.02-.36-.08-.07-.17-.15-.23-.3l-.17.35.22-.02c0,.15-.04.23-.07.35.08-.02.08-.07.11-.13.16.08-.01.46-.07.46-.05,0-.1-.03-.13-.08-.08.05-.09.21-.02.24.03.01.11-.04.14-.04s.06.04.09.06c.12-.01.15-.12.14-.23,0-.11.12-.14.16-.2.03,0,.05,0,.07.03-.09.04-.09.11-.05.17.16.24.11.58-.13.71-.06-.05-.13-.05-.2-.04-.1,0-.04.16-.14.31-.22.05-.33.21-.33.44l-.18.07-.37-.21c-.07-.04-.09-.11-.13-.15.05,0,.1,0,.16-.02v-.23s.64.11.64.11c.08-.01.09-.22.05-.28l-.21.09c-.14-.23-.38-.07-.51-.16,0-.04-.04-.08-.08-.09h-.05c.06-.13-.23-.31-.16-.54.01-.04.05-.08.13-.09-.1-.15-.07-.33.02-.48.18.16.3.07.45,0,.11-.03.28.05.37-.13,0,0-.04-.05-.06-.08.05-.01.1-.03.1-.04v-.09c.06-.1.08-.18.03-.26l.16-.17c.22.06.41.2.62.32.08.05.17.09.2.17ZM13.49,23.11s-.08-.26-.17-.3-.37.07-.34.24c.16.14.59-.02.51.06ZM13.28,23.49c-.15.02-.2,0-.24-.03-.02-.02-.05-.08-.06-.14,0-.09-.12-.08-.11.02.01.16.16.28.28.33.07-.06.11-.08.13-.17Z" style="fill: #bb7894;"/>
      <path d="M13.95,22.71c0,.07.05.1.13.11.06.01.06.11.04.15l-.09.17c.07.1.1.19.1.29v.2s-.07.03-.1.08h.22c-.01.09-.08.19-.07.29.04.09.1.2.17.28.17-.08.26-.19.36-.3.03.02.07.05.07.08,0,.06-.25.33-.12.46.09.09.15.14.13.26-.06,0-.18,0-.22.08-.03.07.05.15.08.2-.04.02-.09.08-.06.08.04.01.07.02.12.07.08-.09.15-.23.11-.36.14.05.22.17.38.17.05,0,.13.04.16.08l.18.19.16.38c-.06.03-.11.02-.16-.02-.1.1-.27.06-.37-.05.02-.07.04-.14-.02-.19-.06-.04-.1-.1-.21-.05.13.04.12.22.1.31-.09.09.12.13.16.25l-.54-.28-1.68-.99.18-.07c0-.23.12-.38.33-.44.1-.15.04-.3.14-.31,0,.11.04.22.17.27.05-.1.02-.16.03-.23.24-.13.29-.47.13-.71-.04-.06-.04-.13.05-.17-.02-.04-.04-.04-.07-.03-.08,0-.12-.06-.16-.11,0-.05,0-.1.05-.11l.11-.04ZM13.65,24.47c-.04-.11-.17-.15-.28-.17.12.18.12.39.23.32.03-.02.07-.09.05-.15Z" style="fill: #a48f71;"/>
      <path d="M11.41,20.44c.11-.01.25.08.28.18.03.07.08.11.15.16,0,.04-.02.11,0,.14.07.11.26.04.26.18,0,.1-.15.19-.11.28.02.04.1.04.14.03.13.05.08.34-.06.49-.01,0-.04,0-.05,0-.02-.04-.03-.08-.04-.15-.01-.03-.1-.01-.14.03-.02.02-.02.06-.02.09-.12.13-.28.11-.46.1l-.1.06-.06-.05c0,.06,0,.14-.03.16-.02.01-.37-.04-.72.37-.05.05-.06.22-.01.27.11.11.14.24.23.36l.08.1s0,.07-.05.08l-.64-.37c-.02-.26.07-.37-.07-.44.05-.1.13-.15.28-.17-.15-.18-.08-.27-.06-.43l.06-.35c.02-.11,0-.24.06-.34.08.01.17.06.25.1.13-.16.22.03.47.03.07.06.19.14.3.02.01.12.08.11.17.15.03.04.06.13.1.14.04.02.16.03.19-.01.02-.09.02-.18.08-.25.04-.05,0-.1,0-.12,0-.05-.1-.06-.09-.03.01.15-.04.31-.16.28,0-.11.07-.18.06-.23-.02-.06-.1-.11-.16-.17-.02-.05.07-.09.12-.08.01-.19-.2-.43-.29-.42-.05,0-.09.04-.15.12-.06-.08-.01-.12,0-.19.01-.04-.08-.07-.1-.04,0-.08.08-.04.29-.07Z" style="fill: #699a3a;"/>
      <path d="M9.25,20.22l.15.05c.05.02.1.06.18.07h.32s.03.02.04.01c.05.08.1.21.07.31-.05.02-.13.03-.16.07-.07.15.05.23.22.38-.04.05-.07.09-.08.15,0,.04.11.05.13.02.03-.04.02-.11.02-.21.07.07.11.1.18.11,0,.01,0,.02.01.03-.06.1-.04.23-.06.34l-.06.35c-.03.16-.09.25.06.43-.16.02-.24.07-.28.17.15.07.06.18.07.44l-.29-.18c.06-.12-.04-.23-.05-.34l-.04-.92c0-.13-.13-.3-.2-.4l-.42-.16c-.11-.04-.25-.11-.28-.23.06-.07.03-.16-.04-.2.08.02.14,0,.22-.05-.05.02-.01.06,0,.07,0,.04-.02.08-.04.14.14-.12.25,0,.25-.12.04-.03.06-.09.03-.14-.02-.05-.09-.06-.15-.08-.03-.04.01-.12.05-.12.05,0,.11,0,.15.01ZM9.8,20.64c-.08-.12-.27-.11-.37.02.05.06.14.17.26.17.05,0,.14-.14.11-.19ZM10.02,21.65c-.17.02-.18.11-.19.21,0,.06,0,.15.1.18.05-.13.09-.25.09-.39Z" style="fill: #0d5033;"/>
      <path d="M8.94,19.18l.33.14c.08.08-.05.14-.07.2-.05.13-.06.24-.14.34-.03,0-.07.05-.07.08l-.09-.04c0-.07-.07-.14-.15-.11-.02.05-.02.15-.05.19-.1.03-.15.12-.17.26l-.21-.15c0,.16.08.25.13.37h.11c.01.07,0,.15-.06.19-.03-.06-.06-.07-.08-.09-.04-.02-.1.04-.09.07.04.08.07.14.08.23-.14.02-.28.1-.4.19.07.12.17.15.26.22-.02.1-.04.17-.08.24-.12,0-.11.18-.29.18-.13-.05-.26-.12-.36-.22.05-.05.05-.14.02-.2-.04.04-.06.06-.1.07l.04-.14c.03-.08.15-.12.2-.18.04-.16-.09-.21-.2-.23v-.08s.01-.02.01-.02c.04-.12.2-.16.1-.3l.17-.27c-.09-.03-.14,0-.21.06l-.09-.14c.07-.04.13-.09.2-.12.02.07.04.14.07.17.05.05.12.04.18.04,0,.01,0,.03,0,.04l-.05.13-.14.07c-.03.11.12.27.22.19.02-.02.03-.1.04-.1.02,0,.06.04.09.07.03-.05.02-.11.02-.16v-.03s0-.1,0-.1c.02-.04.06-.07.12-.1-.02-.12-.09-.24-.19-.28-.04-.02-.07-.09-.15-.08l.26-.15c.05.04.14.02.2,0h.08s-.04.2-.04.2c-.02.09.05.11.11.1.07,0,.14-.02.09-.13-.01-.02-.09-.04-.09-.07,0-.03.02-.08.03-.1l.15-.09c.11.03.28.08.36-.07-.12-.04-.25-.06-.27-.17.05-.03.11-.06.16-.09Z" style="fill: #6eb6de;"/>
      <path d="M18.04,24.95c0,.09.08.15.11.25l-.27.16c-.06,0-.15,0-.16-.08,0-.04.07-.11,0-.19-.02.11-.05.21-.15.29.07.01.1.02.14.06l-1.31.79c-.12.06-.24.11-.35.11.09-.2.19-.3.03-.53l.23-.59c.12-.03.28-.09.4-.07.26.06.48,0,.61-.28.08.05.07.12.04.22.16-.03.18-.23.26-.35.05.04.03.11.03.13,0,.03.08.05.14-.01l.03.39c.06-.1.11-.22.2-.29Z" style="fill: #0d5033;"/>
      <path d="M9.6,22.66l-1.51-.88c.12-.08.17-.16.12-.29.04-.07.07-.14.08-.24-.09-.07-.19-.1-.26-.22.12-.09.27-.17.4-.19.08-.01.18.06.29-.05.03.1.04.18.02.29-.08,0-.14,0-.21.05.08.11.06.22-.01.28-.04-.11-.15-.09-.19-.06l.03.41c.08-.08.08-.17.18-.2.04.12.07.23.2.25,0-.1-.05-.15-.08-.23.09-.07.12-.17.06-.23-.04.05-.03.1-.03.11,0,.02-.02.05-.05.03-.02-.02-.05-.05-.03-.1l.17-.11c-.03-.09.02-.21.1-.23l.54.26.1.39c.04.16-.02.3-.11.43.13.15.2.33.2.53Z" style="fill: #0d5033;"/>
      <path d="M7.63,20.36c-.13.04-.26.09-.41,0-.06.08.03.14.03.17-.01.11-.03.21.06.27.02-.03.07-.1.1-.1.03,0,.07.05.11.06.1.03.24.08.2.23-.05.06-.17.1-.2.18-.04,0-.11-.01-.13.04-.01.03-.02.07-.03.12l-1.05-.62,1.2-.71.09.14c.06-.05.12-.09.21-.06l-.17.27Z" style="fill: #0d5033;"/>
      <path d="M8.73,20.52c.06.03.09.13.04.2.02.12.16.18.28.23l.42.16c.07.1.2.27.2.4l.04.92c0,.12.11.22.05.34l-.17-.1c0-.2-.07-.38-.2-.53.1-.13.15-.28.11-.43l-.1-.39-.54-.26c-.07.02-.12.15-.1.23l-.17.11s0,.08.03.1c.03.02.05,0,.05-.03,0-.02-.01-.07.03-.11.06.06.03.16-.06.23.03.08.09.13.08.23-.13-.01-.16-.13-.2-.25-.1.03-.1.11-.18.2l-.03-.41s.15-.05.19.06c.07-.07.09-.17.01-.28.07-.04.12-.04.21-.05.02-.11.01-.2-.02-.29-.11.11-.2.04-.29.05-.01-.08-.04-.14-.08-.23-.02-.03.05-.09.09-.07.02.02.05.03.08.09.07-.04.07-.13.06-.2l.15.08Z" style="fill: #3470a0;"/>
      <path d="M15.69,25.68s-.02.06-.02.08c.03.08-.02.16-.01.25v.22s-.27-.17-.27-.17c-.04-.18-.18-.34-.36-.39.03-.09.04-.27-.1-.31.11-.04.16.01.21.05.06.05.04.12.02.19.1.11.27.15.37.05.05.04.1.05.16.02Z" style="fill: #699a3a;"/>
      <path d="M8.66,19.35c.02.05.05.09.14.1-.03.06-.08.05-.11.07l-.15.09s-.06.02-.09.01h-.08s-.03-.1-.03-.1c.1-.05.23-.13.32-.17Z" style="fill: #0d5033;"/>
      <path d="M8.05,19.84l-.24.14c.08.03.14.06.14.11-.06,0-.13.01-.18-.04-.03-.03-.05-.1-.07-.17.06-.02.15-.09.2-.13.08-.01.11.07.15.08Z" style="fill: #587a7d;"/>
      <path d="M8.78,19.27c.02.11.15.13.27.17-.08.15-.25.11-.36.07.03-.02.09,0,.11-.07-.08-.01-.12-.05-.14-.1.04-.02.09-.05.12-.08Z" style="fill: #4ea184;"/>
      <path d="M15.39,26.06c-.06-.04-.16-.05-.2-.14-.05-.12-.25-.16-.16-.25.18.05.32.21.36.39Z" style="fill: #0d5033;"/>
      <path d="M19.5,24.4l-.24.13c-.03-.1-.04-.2-.03-.3.15,0,.21.08.27.17Z" style="fill: #587a7d;"/>
      <path d="M7.51,21.17l-.04.14s.06-.03.1-.07c.03.06.03.15-.02.2-.09,0-.14-.08-.21-.12,0-.05.01-.09.03-.12.03-.05.09-.05.13-.04Z" style="fill: #3470a0;"/>
      <path d="M8.2,21.49c.05.14,0,.22-.12.29l-.17-.11c.18,0,.17-.18.29-.18Z" style="fill: #3470a0;"/>
      <path d="M17.87,25.36l-.16.08s-.07-.05-.14-.06c.1-.08.12-.18.15-.29.06.08-.02.16,0,.19.01.07.11.08.16.08Z" style="fill: #3470a0;"/>
      <path d="M8.34,19.52l.03.09c-.06.02-.15.04-.2,0l.17-.09Z" style="fill: #4ea184;"/>
      <path d="M13.51,21.82l-.16.17c-.39-.04-.09.27-.44.5-.04,0-.12.01-.14-.03-.01-.03-.01-.11,0-.14,0-.02,0-.09-.03-.09-.1,0-.16.02-.25,0,0-.15.01-.26.05-.41l.31.05c.04-.19-.22-.03-.27-.21h.12s.03-.08,0-.09c-.04-.02-.07-.04-.08-.06s.01-.08.02-.1c-.05-.05-.1-.1-.1-.16-.04.02-.12.05-.14.02-.03-.03-.04-.09-.05-.16-.1.07-.16.16-.28.19.08.03.07.08.07.1-.04.01-.12,0-.14-.03-.04-.09.11-.18.11-.28,0-.14-.19-.07-.26-.18-.02-.03,0-.1,0-.14-.07-.06-.12-.09-.15-.16l.42.26s.04.11.03.18c.17-.09.26-.02.38.06.18.13.36.24.53.37.15.12.38.15.45.33Z" style="fill: #a48f71;"/>
      <path d="M15.03,22.73l-.08-.04c-.1-.1-.22-.2-.37-.21-.04-.08-.12-.1-.17-.16.07,0,.1-.01.14-.1.04-.1.28-.22.37-.13.11.09.15.18.34.13.04.14.02.32-.12.41-.04.03-.11.03-.1.1Z" style="fill: #699a3a;"/>
      <path d="M14.4,22.32c.05.06.14.08.17.16-.03,0-.07,0-.09.01-.02.02-.03.06-.05.1l-.05.07s.03.03.06.08c-.05,0-.1-.02-.13-.01-.14.03-.07.21-.19.23.01-.04.02-.14-.04-.15-.08-.01-.13-.04-.13-.11l.38-.4h.08Z" style="fill: #60c587;"/>
      <path d="M13.88,21.29s-.04.15-.08.17c-.13-.03-.27-.1-.29-.25.13-.02.25,0,.37.08Z" style="fill: #0d5033;"/>
      <path d="M15.03,22.73l.04.06s0,.09-.03.13c-.02.03-.07.06-.1.03-.05-.03-.06-.1-.04-.15l.04-.12.08.04Z" style="fill: #a48f71;"/>
      <path d="M15.7,25.03c-.04.1-.02.2.04.3.05.09.04.46-.08.43,0-.02,0-.05.02-.08l-.16-.38-.18-.19c.16.04.22-.08.35-.08Z" style="fill: #587a7d;"/>
      <path d="M18.14,24.6c-.05.05-.11.11-.11.18-.05.03-.1.03-.16.12-.03-.08-.04-.22.03-.3.05-.06.18-.03.24,0Z" style="fill: #6eb6de;"/>
      <path d="M17.58,24.66c.04-.1.11-.16.07-.27l-.12.04c0-.09.04-.12.07-.14.05-.03.13,0,.14.08.01.12-.06.24-.15.28Z" style="fill: #6eb6de;"/>
      <path d="M18.63,23.86h-.07s0-.1,0-.1c.06-.07.17-.08.25-.03-.05.08-.11.1-.17.12Z" style="fill: #6eb6de;"/>
      <path d="M18.19,24.6s.04.06.01.1c-.07-.01-.12.06-.17.09,0-.08.06-.13.11-.18.01,0,.04,0,.05,0Z" style="fill: #0d5033;"/>
      <path d="M18.55,23.84s-.11.08-.13.05c.04-.03.09-.06.13-.05Z" style="fill: #4ea184;"/>
      <path d="M18.13,24.82s.04-.03.05-.04c0,.02-.03.04-.05.04Z" style="fill: #0d5033;"/>
      <path d="M15.71,23.83c0,.11.07.23.1.33.07.21-.1.49-.26.67-.04-.07.01-.11,0-.18-.08.1-.16.16-.29.16-.04.04-.1.11-.15.12.07.04.08.07.09.11-.16,0-.23-.12-.38-.17l-.03-.09c.02-.11-.05-.17-.13-.26-.12-.13.13-.4.12-.46,0-.03-.03-.07-.07-.08v-.1c.08-.03.2.03.28.08.03.05.02.17.14.2l.12-.24c.06,0,.09.04.08.06,0,.01-.01.03,0,.06.02.04.09.08.15.04-.1-.14-.15-.26-.12-.4.09.15.23.13.35.16Z" style="fill: #587a7d;"/>
      <path d="M14.54,23.71c-.02.09.12.06.17.16v.1c-.08.1-.18.22-.35.3-.07-.08-.14-.19-.17-.28,0-.1.05-.2.07-.28h.29Z" style="fill: #bb7894;"/>
      <path d="M14.54,23.71s0-.08-.04-.08h-.37s0-.2,0-.2c.11,0,.23-.02.36-.05.06.03.09.12.13.16.1.02.15.04.16.15-.07.03-.16.02-.24.02Z" style="fill: #60c587;"/>
      <path d="M15.24,23.49c.07.04-.01.19-.08.21-.06.02-.23-.04-.19-.12.03-.09.18-.15.28-.09Z" style="fill: #587a7d;"/>
      <path d="M19.06,23.28s.13.03.11.09c-.02.08-.04.15-.03.22h-.15s.02-.07-.02-.15c-.1.1-.16.17-.25.21,0-.12.09-.13.14-.16.02-.13.1-.19.2-.21Z" style="fill: #699a3a;"/>
      <path d="M20.57,22.24s.07-.02.07,0c0,.01-.03.04-.04.05-.02.03-.07-.01-.04-.05Z" style="fill: #587a7d;"/>
      <path d="M18.85,23.64s.06-.02.09-.01c.03,0,0,.07-.05.05l-.04.07s-.04-.09-.01-.11Z" style="fill: #699a3a;"/>
      <path d="M10.76,20.39s0,.07.02.09c.02.02.06.04.1.04h.24s.11,0,.1.04c-.02.07-.07.12,0,.19.05-.08.1-.11.15-.12.09-.01.3.23.29.42-.04,0-.14.04-.12.08.06.06.13.11.16.17.02.05-.05.12-.06.23.12.03.18-.14.16-.28,0-.04.1-.03.09.03,0,.03.04.08,0,.12-.06.07-.05.16-.08.25-.03.04-.14.03-.19.01-.04-.02-.07-.1-.1-.14-.09-.04-.16-.03-.17-.15-.12.12-.23.04-.3-.02l.05-.04.29-.02c.07,0,.07-.19,0-.24l-.17.05c-.1-.18-.28-.28-.49-.26l.08-.16c-.04-.1-.1-.17-.21-.23l-.16.55s-.04.03-.05.05c-.04.02-.15.07-.17.01-.04-.1.03-.21.03-.3.17-.08.29-.24.22-.46l.3.09Z" style="fill: #60c587;"/>
      <path d="M10.16,20.38l-.02.26s0,.07,0,.09c.02.02.06.04.09.04,0,.09-.07.2-.03.3.02.06.14,0,.17-.01-.01.05-.03.09-.07.13-.07,0-.11-.04-.18-.11,0,.1.01.17-.02.21-.03.03-.14.02-.13-.02,0-.07.04-.1.08-.15-.17-.14-.29-.22-.22-.38.02-.05.1-.06.16-.07.03-.1-.02-.23-.07-.31.07-.02.16-.03.23.03Z" style="fill: #699a3a;"/>
      <path d="M10.16,20.38c-.07-.06-.16-.06-.23-.03-.01,0-.03,0-.04,0-.02-.09.01-.18.09-.23.13.02.19.14.18.26Z" style="fill: #60c587;"/>
      <path d="M8.91,19.89v.17s0,.04,0,.04c-.06,0-.14.03-.12.12l.12-.08c.08-.03.17-.04.24.03.05-.1.07-.2.15-.25l.02.08s.04,0,.05,0c-.03.07-.12.11-.11.2-.04-.01-.1-.01-.15-.01-.04,0-.08.08-.05.12.05.02.12.04.15.08.03.05.01.1-.03.14-.05-.07-.15-.06-.21-.01,0-.02-.05-.05,0-.07.03-.07-.12-.14-.23-.11-.02-.08-.03-.18,0-.26,0-.02.06-.06.05-.08,0-.02-.04-.03-.06-.03.03-.04.03-.14.05-.19.07-.04.15.04.15.11Z" style="fill: #4ea184;"/>
      <path d="M8.99,19.93s0,.06-.01.1c0,.02-.04.04-.08.03v-.17s.09.04.09.04Z" style="fill: #60c587;"/>
      <path d="M8.91,20.1v.05s-.12.08-.12.08c-.02-.09.06-.13.12-.12Z" style="fill: #60c587;"/>
      <path d="M12.77,22.32c-.1.02-.24.07-.25.21.02.07.16.12.22.08l.18-.11c.35-.23.05-.54.44-.5.05.08.03.16-.03.26v.09s-.05.03-.1.04c.01.03.06.07.06.08-.09.18-.26.1-.37.13-.15.08-.27.17-.45,0-.09.15-.12.33-.02.48-.08.01-.11.04-.13.09-.02.02-.12.04-.13,0-.04-.08-.08-.19-.09-.27,0-.02.05-.05.08-.04.02,0,.04.03.05.06.28-.29-.16-.5-.07-.88-.03-.04-.07-.1-.07-.14.13-.15.19-.44.06-.49,0-.03,0-.07-.07-.1.12-.03.18-.12.28-.19.01.07.02.13.05.16.02.02.1,0,.14-.02,0,.06.05.11.1.16,0,.02-.02.08-.02.1s.03.04.08.06c.03.01.03.08,0,.08h-.12c.05.19.3.03.27.22l-.31-.05c-.04.15-.06.27-.05.41.09.02.16,0,.25,0,.03,0,.03.07.03.09Z" style="fill: #5f504c;"/>
      <path d="M12.08,21.9s.04.1.07.14c-.09.38.35.58.07.88-.01-.02-.03-.05-.05-.06-.03,0-.07.02-.08.04,0-.06.06-.19-.03-.24-.01,0-.1.02-.09,0,0-.02.02-.07.02-.07.07-.16-.01-.32-.09-.31-.05,0-.09.04-.11.09l-.02-.32c.1-.05.2-.08.27-.15.01,0,.04,0,.05,0Z" style="fill: #bb7894;"/>
      <path d="M12.6,23.8c.13.09.37-.07.51.16l.21-.09c.05.06.03.27-.05.28l-.63-.11c-.09-.02-.16-.04-.2-.12-.04-.08,0-.15.03-.22h.05s.05.07.08.09Z" style="fill: #5f504c;"/>
      <path d="M11.98,22.59l-.1.23c-.03-.07,0-.13.01-.18-.11-.08-.11-.16-.11-.26.02-.06.06-.08.11-.09.08-.02.17.14.09.31Z" style="fill: #e1d5d2;"/>
      <path d="M13.79,22.86s.07.1.16.11c-.03.07-.16.1-.16.2.01.11-.01.22-.14.23-.03-.03-.06-.06-.09-.06s-.12.05-.14.04c-.07-.03-.06-.19.02-.24.02.05.07.08.13.08.06,0,.23-.38.07-.46-.03.06-.03.11-.11.13.03-.13.07-.2.07-.35l-.22.02.17-.35c.06.15.16.23.23.3-.03.13-.06.26.02.36Z" style="fill: #5f504c;"/>
      <path d="M13.49,23.11c.08-.08-.35.08-.51-.06-.03-.17.26-.28.34-.24s.19.28.17.3Z" style="fill: #5f504c;"/>
      <path d="M13.28,23.49c-.01.09-.06.11-.13.17-.12-.05-.27-.17-.28-.33,0-.1.1-.11.11-.02.01.06.03.12.06.14.04.04.09.05.24.03Z" style="fill: #5f504c;"/>
      <path d="M13.83,23.88c0,.07.02.13-.03.23-.13-.05-.17-.17-.17-.27.07,0,.14,0,.2.04Z" style="fill: #5f504c;"/>
      <path d="M12.6,23.8s-.07-.05-.08-.09c.04,0,.07.04.08.09Z" style="fill: #a48f71;"/>
      <path d="M14.79,24.78l.03.09c.05.12-.03.26-.11.36-.05-.06-.08-.06-.12-.07-.03,0,.02-.06.06-.08-.03-.05-.11-.13-.08-.2.03-.08.16-.09.22-.08Z" style="fill: #699a3a;"/>
      <path d="M13.65,24.47c.02.06-.02.13-.05.15-.11.07-.11-.15-.23-.32.11.02.24.06.28.17Z" style="fill: #e1d5d2;"/>
      <path d="M14.54,23.71h-.29s-.22,0-.22,0c.03-.04.06-.06.09-.08h.37s.05.06.04.08Z" style="fill: #699a3a;"/>
      <path d="M10.59,20.98c.18.03.37.08.49.23v.09s-.04.04-.04.04c-.24,0-.34-.19-.47-.03-.07-.04-.16-.08-.25-.1-.01,0-.02-.02-.01-.03.04-.03.05-.08.07-.13,0-.02.03-.04.05-.05.05-.03.11-.03.16-.02Z" style="fill: #a48f71;"/>
      <path d="M8.96,20.47c-.08.06-.15.08-.22.05l-.15-.08h-.11c-.05-.11-.13-.2-.13-.36l.21.15c.02-.13.07-.23.17-.26.02,0,.05.01.06.03.01.02-.04.06-.05.08-.03.08-.02.18,0,.26.11-.02.26.05.23.11Z" style="fill: #587a7d;"/>
      <path d="M9.8,20.64c.04.05-.05.2-.11.19-.12,0-.21-.11-.26-.17.1-.13.29-.14.37-.02Z" style="fill: #587a7d;"/>
      <path d="M10.02,21.65c0,.14-.04.25-.09.39-.11-.03-.11-.12-.1-.18.02-.1.02-.19.19-.21Z" style="fill: #699a3a;"/>
      <path d="M9.16,20.55c0,.12-.11,0-.25.12.02-.05.05-.1.04-.14.06-.05.16-.05.21.01Z" style="fill: #587a7d;"/>
      <path d="M7.63,20.36c.1.14-.06.18-.1.3,0-.03,0-.11-.06-.11s-.06.07-.04.1c.02.02.06.03.09.03v.08s-.08-.06-.11-.06c-.03,0-.08.07-.1.1-.09-.06-.07-.16-.06-.27,0-.04-.08-.1-.03-.17.15.09.28.04.41,0Z" style="fill: #3470a0;"/>
      <path d="M8.12,20.22v.1s0,.02,0,.03c0,.05.01.11-.02.16-.03-.04-.07-.07-.09-.07-.02,0-.02.08-.04.1-.1.08-.25-.08-.22-.19l.14-.07.05-.13.17.08Z" style="fill: #587a7d;"/>
      <path d="M8.12,20.22l-.17-.08s0-.03,0-.04c0-.06-.06-.09-.14-.11l.24-.14c.09.04.16.16.19.28-.07.03-.1.06-.12.1Z" style="fill: #4ea184;"/>
      <path d="M8.54,19.6s-.03.08-.03.1c0,.02.08.05.09.07.05.11-.02.12-.09.13-.06,0-.14-.01-.11-.1l.04-.19s.07,0,.09-.01Z" style="fill: #4ea184;"/>
      <path d="M7.53,20.66v.02s-.08,0-.1-.03c-.02-.03,0-.1.04-.1s.06.08.06.11Z" style="fill: #0d5033;"/>
      <path d="M8.13,20.35s0-.03,0-.03v.03Z" style="fill: #4ea184;"/>
      <path d="M18.52,24.78s-.03-.11,0-.15c.02-.04.09-.08.12-.03.02.04.04.09.03.11,0,.03-.06.09-.15.07Z" style="fill: #3470a0;"/>
      <path d="M12.77,22.32s0,.11,0,.14c.02.04.1.04.14.03l-.18.11c-.06.04-.19-.01-.22-.08,0-.13.15-.19.25-.21Z" style="fill: #bb7894;"/>
      <path d="M16.68,23.78l.44.22c.08.04.16.05.13.17-.02.07-.06.08-.17.09l-.24.03c-.27-.07-.54.1-.71.35-.21.06-.32.21-.42.38-.13,0-.19.12-.35.08-.03-.03-.11-.08-.16-.08-.01-.04-.02-.07-.09-.11.06,0,.11-.08.15-.12.13,0,.21-.06.29-.16.02.08-.03.12,0,.18.17-.17.33-.46.26-.67-.03-.1-.11-.21-.1-.33l.07-.04c.1-.05.18.03.22.13l.41.14c.02-.1.07-.14.12-.15.04,0,.08,0,.12.03.02-.07.02-.11.02-.17Z" style="fill: #699a3a;"/>
      <path d="M11.21,21.09c-.01.06-.06.11-.13.12-.12-.15-.31-.2-.49-.23.02-.07.09-.1.12-.15.22-.02.4.07.49.26Z" style="fill: #4ea184;"/>
      <path d="M10.71,20.83c-.03.05-.1.08-.12.15-.06,0-.11,0-.16.02l.16-.55c.11.06.18.13.21.23l-.08.16Z" style="fill: #6eb6de;"/>
      <path d="M11.09,21.29v-.09c.06,0,.11-.06.12-.12l.17-.05c.06.05.07.24,0,.24l-.29.02Z" style="fill: #6eb6de;"/>
    </g>
  </g>
</svg>